<?xml version="1.0" encoding="UTF-8" standalone="no"?>
<!-- Created with Inkscape (http://www.inkscape.org/) -->

<svg
   xmlns:dc="http://purl.org/dc/elements/1.1/"
   xmlns:cc="http://creativecommons.org/ns#"
   xmlns:rdf="http://www.w3.org/1999/02/22-rdf-syntax-ns#"
   xmlns:svg="http://www.w3.org/2000/svg"
   xmlns="http://www.w3.org/2000/svg"
   xmlns:sodipodi="http://sodipodi.sourceforge.net/DTD/sodipodi-0.dtd"
   xmlns:inkscape="http://www.inkscape.org/namespaces/inkscape"
   width="386.37387"
   height="356.96829"
   viewBox="0 0 386.37386 356.9683"
   id="svg2"
   version="1.1"
   inkscape:version="0.91 r13725"
   sodipodi:docname="cover.svg">
  <defs
     id="defs4">
    <inkscape:path-effect
       effect="spiro"
       id="path-effect4308"
       is_visible="true" />
    <inkscape:path-effect
       effect="spiro"
       id="path-effect3352"
       is_visible="true" />
    <inkscape:path-effect
       effect="spiro"
       id="path-effect3340"
       is_visible="true" />
  </defs>
  <sodipodi:namedview
     id="base"
     pagecolor="#ffffff"
     bordercolor="#666666"
     borderopacity="1.0"
     inkscape:pageopacity="0.0"
     inkscape:pageshadow="2"
     inkscape:zoom="1"
     inkscape:cx="206.12231"
     inkscape:cy="226.33038"
     inkscape:document-units="px"
     inkscape:current-layer="layer5"
     showgrid="false"
     units="px"
     fit-margin-top="0"
     fit-margin-left="0"
     fit-margin-right="0"
     fit-margin-bottom="0"
     inkscape:window-width="1347"
     inkscape:window-height="826"
     inkscape:window-x="-2"
     inkscape:window-y="0"
     inkscape:window-maximized="0" />
  <metadata
     id="metadata7">
    <rdf:RDF>
      <cc:Work
         rdf:about="">
        <dc:format>image/svg+xml</dc:format>
        <dc:type
           rdf:resource="http://purl.org/dc/dcmitype/StillImage" />
        <dc:title></dc:title>
      </cc:Work>
    </rdf:RDF>
  </metadata>
  <g
     inkscape:groupmode="layer"
     id="layer5"
     inkscape:label="Initial cover"
     style="display:inline">
    <path
       transform="translate(-73.087065,-4.4776916)"
       style="display:inline;fill:none;fill-opacity:0.36966828;fill-rule:evenodd;stroke:#000000;stroke-width:5;stroke-linecap:butt;stroke-linejoin:miter;stroke-miterlimit:4;stroke-dasharray:none;stroke-opacity:0.55686277"
       d="m 182,79.3622 c -0.42775,-11.60782 5.78268,-17.42691 16,-23 121.07931,-66.04326 112.00418,85.60502 134,112 21.77123,26.12548 119.58325,62.47629 71,118 -15.161,17.3269 -48.43516,13 -68,13 -147.38964,0 -112.44356,-48.99206 -123,-144 -3.25315,-29.27832 -32.86762,-47.32375 -30,-76 z"
       id="path4316"
       inkscape:connector-curvature="0" />
  </g>
  <g
     inkscape:label="Base"
     inkscape:groupmode="layer"
     id="layer1"
     transform="translate(-73.087065,-4.4776916)"
     style="display:inline">
    <path
       style="fill:none;fill-rule:evenodd;stroke:#000000;stroke-width:5;stroke-linecap:butt;stroke-linejoin:miter;stroke-miterlimit:4;stroke-dasharray:none;stroke-opacity:0.55721388"
       d="m 95,93.362205 c 43.24808,-13.59317 82.9271,4.981776 123,14.999995 76.3393,19.08483 222.77953,264.05997 40,250 C 163.08258,351.06086 24.162683,109.10383 95,93.362205 Z"
       id="path4330"
       inkscape:connector-curvature="0" />
    <path
       style="display:inline;fill:none;fill-rule:evenodd;stroke:#000000;stroke-width:5;stroke-linecap:butt;stroke-linejoin:miter;stroke-miterlimit:4;stroke-dasharray:none;stroke-opacity:0.55721388"
       d="M 181,31.362205 C 338.58059,-70.852707 427.07929,182.67013 194,159.3622 132.38938,153.20114 145.70835,53.419486 181,31.362205 Z"
       id="path4328"
       inkscape:connector-curvature="0" />
  </g>
  <g
     inkscape:groupmode="layer"
     id="layer3"
     inkscape:label="Chosen cover"
     style="display:inline">
    <path
       transform="translate(-73.087065,-4.4776916)"
       style="display:inline;fill:none;fill-opacity:0.36966828;fill-rule:evenodd;stroke:#000000;stroke-width:5;stroke-linecap:butt;stroke-linejoin:miter;stroke-miterlimit:4;stroke-dasharray:none;stroke-opacity:0.55686277"
       d="m 253,139.3622 c 18.60159,-25.48234 76.25926,-32.19753 107,-24 60.77966,16.20791 143.2056,166.31109 65,211 -129.39213,73.93836 -221.08237,-88.83525 -172,-187 z"
       id="path4340"
       inkscape:connector-curvature="0" />
  </g>
  <g
     inkscape:groupmode="layer"
     id="layer2"
     inkscape:label="New open"
     style="display:inline">
    <path
       style="display:inline;fill:#0000a0;fill-opacity:0.36966828;fill-rule:evenodd;stroke:#000000;stroke-width:5;stroke-linecap:butt;stroke-linejoin:miter;stroke-miterlimit:4;stroke-dasharray:none;stroke-opacity:1"
       d="m 241.29688,108.46289 c -25.0219,2.61308 -50.22801,11.13821 -61.38477,26.42188 -23.95063,47.90125 -14.36881,111.17523 16.74414,154.83398 16.32756,3.43633 37.57505,5.16602 65.25586,5.16602 19.56484,0 52.839,4.3269 68,-13 48.58325,-55.52371 -49.22877,-91.87452 -71,-118 -7.3288,-8.79456 -11.22154,-31.50244 -17.61523,-55.42188 z"
       id="path4407"
       inkscape:connector-curvature="0" />
  </g>
  <g
     inkscape:groupmode="layer"
     id="layer4"
     inkscape:label="point"
     style="display:inline">
    <path
       transform="translate(-73.087065,-4.4776916)"
       sodipodi:type="star"
       style="display:inline;opacity:1;fill:#ac1d00;fill-opacity:1;stroke:none;stroke-width:0.47712696;stroke-miterlimit:4;stroke-dasharray:none;stroke-opacity:1"
       id="path4381"
       sodipodi:sides="5"
       sodipodi:cx="288.44315"
       sodipodi:cy="236.71196"
       sodipodi:r1="11.337564"
       sodipodi:r2="6.8137527"
       sodipodi:arg1="0.94076242"
       sodipodi:arg2="1.569081"
       inkscape:flatsided="false"
       inkscape:rounded="0.025534507"
       inkscape:randomized="0"
       d="m 295.12292,245.8728 c -0.14585,0.10635 -6.48758,-2.34741 -6.66809,-2.3471 -0.1805,3.1e-4 -6.51378,2.47581 -6.65999,2.36996 -0.14622,-0.10585 0.22774,-6.89545 0.17166,-7.06702 -0.0561,-0.17158 -4.3675,-5.42991 -4.31201,-5.60168 0.0555,-0.17177 6.62833,-1.91421 6.77418,-2.02056 0.14585,-0.10635 3.81452,-5.83168 3.99503,-5.83199 0.1805,-3.1e-4 3.86879,5.7124 4.01501,5.81825 0.14621,0.10584 6.725,1.82573 6.78107,1.99731 0.0561,0.17157 -4.23728,5.44467 -4.29277,5.61644 -0.0555,0.17176 0.34176,6.96004 0.19591,7.06639 z"
       inkscape:transform-center-x="0.0059084358"
       inkscape:transform-center-y="-1.0623988" />
  </g>
</svg>
